<svg viewBox="0 0 64 80" xmlns="http://www.w3.org/2000/svg" fill="none" aria-hidden="true" role="presentation">
  <g stroke="currentColor" stroke-width="1.1" stroke-linecap="round" fill="none">
    
    <path d="M32 80 C31 60 33 38 32 16"></path>
  </g>
  <g fill="currentColor">
    
    <path d="M32 62 C32 54 38 50 47 49 C44 57 39 61 32 62 Z"></path>
    <path d="M32 62 C32 54 26 50 17 49 C20 57 25 61 32 62 Z"></path>

    <path d="M32 50 C32 43 37 39 45 38 C42 45 38 49 32 50 Z"></path>
    <path d="M32 50 C32 43 27 39 19 38 C22 45 26 49 32 50 Z"></path>

    <path d="M32 39 C32 33 36 30 43 29 C40 35 37 38 32 39 Z"></path>
    <path d="M32 39 C32 33 28 30 21 29 C24 35 27 38 32 39 Z"></path>

    <path d="M32 29 C32 24 35 21 41 20 C38 26 36 28 32 29 Z"></path>
    <path d="M32 29 C32 24 29 21 23 20 C26 26 28 28 32 29 Z"></path>

    
    <path d="M32 21 C30 16 31 11 32 7 C33 11 34 16 32 21 Z"></path>
  </g>
</svg>